<svg xmlns="http://www.w3.org/2000/svg" version="1.1" xmlns:xlink="http://www.w3.org/1999/xlink" xmlns:svgjs="http://svgjs.com/svgjs" width="512" height="512" x="0" y="0" viewBox="0 0 512 512" style="enable-background:new 0 0 512 512" xml:space="preserve" class="hovered-paths"><g><path fill="#F3AC7E" d="M512 256c0 68.379-26.629 132.66-74.98 181.02-48.34 48.34-112.622 74.968-180.989 74.98H256c-68.379 0-132.672-26.629-181.02-74.98C26.63 388.66 0 324.379 0 256S26.629 123.328 74.98 74.98C123.328 26.63 187.621 0 256 0h.031C324.398.012 388.68 26.64 437.02 74.98 485.37 123.328 512 187.621 512 256zm0 0" data-original="#00ccff" class=""></path><path fill="#C77744" d="M512 256c0 68.379-26.629 132.66-74.98 181.02-48.34 48.34-112.622 74.968-180.989 74.98V0C324.398.012 388.68 26.64 437.02 74.98 485.37 123.328 512 187.621 512 256zm0 0" data-original="#00a8e8" class=""></path><path fill="#FFEADC" d="M356.727 217.258c-47.778 26.652-39.641 104.449 12.183 104.449 22.352 0 41.695-16.344 50.309-37.238 19.89-48.258-21.473-90.102-62.492-67.211zM307.656 226.895c57.324 0 74.489-94.684 20.028-110.25-24.813-7.09-53.028 9.921-62.09 41.02-10.168 34.855 9.836 69.23 42.062 69.23zm0 0" data-original="#d7f3ff" class=""></path><g fill="#FFFFFF"><path d="M292.91 395.43c-7.96-2.14-22.09-3.52-36.879-3.72-15.633-.222-32 .868-42.59 3.72-28.601 7.75-67.52-11-58.98-49.942 7.898-36 36.277-33.949 42.988-68.066 6.762-34.48 33.04-51.121 58.582-49.82 23.64 1.207 46.649 17.789 52.918 49.828 6.672 34.14 34.992 32.07 42.88 68.058 8.57 38.973-30.43 57.621-58.919 49.942zM206.77 226.895c16.214 0 30.14-9.16 37.878-23.18 23.004-41.688-14.777-99.399-57.91-87.04-54.554 15.61-37.261 110.22 20.032 110.22zm0 0" fill="#FFEADC" data-original="#ffffff" class="hovered-path"></path><path d="M180.855 290.707c18.407-43.805-25.222-97.312-66.89-80.477-50.192 20.278-28.055 107.735 27.133 107.735 17.71 0 32.761-10.606 39.757-27.258zm0 0" fill="#FFEADC" data-original="#ffffff" class="hovered-path"></path></g><path fill="#FFEADC" d="M292.91 395.43c-7.96-2.14-22.09-3.52-36.879-3.72V227.603c23.64 1.207 46.649 17.789 52.918 49.828 6.672 34.14 34.992 32.07 42.88 68.058 8.57 38.973-30.43 57.621-58.919 49.942zm0 0" data-original="#d7f3ff" class=""></path></g></svg>